<svg width="24" height="24" viewBox="0 0 24 24" fill="none"
    xmlns="http://www.w3.org/2000/svg" class="text-neutral-40">
    <path d="M14.8749 4.141C14.5059 2.903 13.3579 2 11.9999 2L11.8239 2.004L11.6419 2.021C11.0319 2.09473 10.4592 2.35384 10.001 2.76334C9.54289 3.17284 9.2214 3.71303 9.07995 4.311L9.06995 4.354L8.82195 4.5C7.70611 5.18161 6.77436 6.12632 6.10823 7.25147C5.44211 8.37661 5.06192 9.64788 5.00095 10.954L4.99995 13.924L4.97895 14.067C4.89899 14.4974 4.72578 14.9052 4.47149 15.2616C4.21719 15.618 3.88798 15.9144 3.50695 16.13C2.61295 16.636 2.97195 18 3.99995 18H19.9999L20.1159 17.994C21.0529 17.896 21.3529 16.617 20.4929 16.13L20.3309 16.031L20.1639 15.914C19.5656 15.4627 19.1579 14.8038 19.0209 14.067L18.9999 13.931V11L18.9809 10.711L18.9529 10.424C18.8092 9.16648 18.3696 7.9609 17.6702 6.906C16.9707 5.8511 16.0313 4.9769 14.9289 4.355L14.9209 4.312L14.8749 4.141ZM14.98 20.668C15.557 20.024 15.1 19 14.235 19L9.76397 19.001L9.65397 19.007C8.86197 19.089 8.46797 20.052 9.01997 20.668C9.3948 21.0875 9.85404 21.4229 10.3676 21.6525C10.8812 21.8821 11.4374 22.0005 12 22C12.5625 22.0005 13.1188 21.8821 13.6323 21.6525C14.1459 21.4229 14.6051 21.0875 14.98 20.668Z" clip-rule="evenodd" fill=""></path>
</svg>