<svg xmlns="http://www.w3.org/2000/svg" width="" height="" viewBox="0 0 24 24" fill="none" class="text-[#444F8E]">
    <path d="M12 3.875C13.7266 3.875 15.125 5.27344 15.125 7V9.5H8.875V7C8.875 5.27344 10.2734 3.875 12 3.875ZM7 7V9.5H5.75C4.37109 9.5 3.25 10.6211 3.25 12V19.5C3.25 20.8789 4.37109 22 5.75 22H18.25C19.6289 22 20.75 20.8789 20.75 19.5V12C20.75 10.6211 19.6289 9.5 18.25 9.5H17V7C17 4.23828 14.7617 2 12 2C9.23828 2 7 4.23828 7 7ZM5.75 11.375H18.25C18.5938 11.375 18.875 11.6562 18.875 12V19.5C18.875 19.8438 18.5938 20.125 18.25 20.125H5.75C5.40625 20.125 5.125 19.8438 5.125 19.5V12C5.125 11.6562 5.40625 11.375 5.75 11.375ZM12.9375 14.5C12.9375 13.9805 12.5195 13.5625 12 13.5625C11.4805 13.5625 11.0625 13.9805 11.0625 14.5V17C11.0625 17.5195 11.4805 17.9375 12 17.9375C12.5195 17.9375 12.9375 17.5195 12.9375 17V14.5Z" fill=""></path>
</svg>