<svg xmlns="http://www.w3.org/2000/svg" width="" height="" viewBox="0 0 24 24" fill="none" class="size-6 text-green-50">
    <path d="M8.625 16V8H13.0898V16H8.625ZM6.375 4C6.70312 4 6.97266 4.09375 7.18359 4.28125C7.39453 4.46875 7.5 4.70833 7.5 5V6.96875H3V5C3 4.70833 3.10547 4.46875 3.31641 4.28125C3.52734 4.09375 3.78516 4 4.08984 4H6.375ZM8.625 18.9688L8.58984 16.9375H13.0547V18.9375C13.0547 19.2292 12.9609 19.4688 12.7734 19.6562C12.5625 19.8438 12.293 19.9375 11.9648 19.9375H9.75C9.42188 19.9375 9.15234 19.8438 8.94141 19.6562C8.73047 19.4896 8.625 19.2604 8.625 18.9688ZM3 18.9688V17H7.5L7.42969 18.9688C7.42969 19.2396 7.32422 19.4688 7.11328 19.6562C6.92578 19.8438 6.66797 19.9375 6.33984 19.9375H4.08984C3.78516 19.9375 3.52734 19.8438 3.31641 19.6562C3.10547 19.4896 3 19.2604 3 18.9688ZM3 16V8H7.5V16H3ZM17.7656 7.625L20.0859 15.3438L15.7617 16.375L13.4062 8.65625L17.7656 7.625ZM20.9648 18.2188C21.0352 18.4896 21 18.7396 20.8594 18.9688C20.6953 19.2188 20.4609 19.375 20.1562 19.4375L18.0117 19.9688C17.6836 20.0312 17.3906 20 17.1328 19.875C16.875 19.7292 16.6992 19.5208 16.6055 19.25L16.043 17.3438L20.3672 16.3125L20.9648 18.2188ZM16.8867 4.75L17.4844 6.65625L13.125 7.6875L12.9141 7H8.625L8.66016 4.96875C8.66016 4.69792 8.76562 4.46875 8.97656 4.28125C9.1875 4.09375 9.45703 4 9.78516 4H12C12.5156 4.02083 12.8672 4.25 13.0547 4.6875C13.0547 4.66667 13.0547 4.65625 13.0547 4.65625C13.1484 4.61458 13.2422 4.58333 13.3359 4.5625L15.5156 4.03125C15.8203 3.96875 16.1016 4 16.3594 4.125C16.6172 4.27083 16.793 4.47917 16.8867 4.75Z" fill=""></path>
</svg>