<svg width="24" height="24" viewBox="0 0 24 24" fill="none"
    xmlns="http://www.w3.org/2000/svg">
    <g clip-path="url(#clip0_1704_30)">
        <path d="M14.4144 4.21178C19.7084 4.21178 24 8.49619 24 13.7813C24 15.3631 23.6155 16.8552 22.9349 18.1697C22.396 19.2104 23.2265 23.0903 22.9349 23.3508C22.6433 23.6114 19.1239 22.1861 18.1421 22.6002C16.9962 23.0836 15.7366 23.3508 14.4144 23.3508C9.12045 23.3508 4.82886 19.0664 4.82886 13.7813C4.82886 8.49619 9.12045 4.21178 14.4144 4.21178Z" fill="#DAC9F0"></path>
        <path d="M21.6036 11.4009C21.6036 17.3566 16.7756 22.1847 10.8199 22.1847C9.03741 22.1847 7.35595 21.7522 5.87469 20.9865C4.70187 20.3802 0.329746 21.3145 0.0361339 20.9865C-0.257475 20.6584 1.34863 16.6991 0.881952 15.5946C0.33729 14.3055 0.0361358 12.8884 0.0361358 11.4009C0.0361358 5.44523 4.86418 0.617188 10.8199 0.617188C16.7756 0.617188 21.6036 5.44523 21.6036 11.4009Z" fill="white"></path>
        <path fill-rule="evenodd" clip-rule="evenodd" d="M10.8199 19.9993C15.5686 19.9993 19.4183 16.1497 19.4183 11.4009C19.4183 6.65218 15.5686 2.80255 10.8199 2.80255C6.07113 2.80255 2.2215 6.65218 2.2215 11.4009C2.2215 12.591 2.46202 13.7192 2.89502 14.7441C3.11483 15.2643 3.15079 15.777 3.15288 16.1165C3.15515 16.4861 3.11588 16.8549 3.0662 17.1835C2.99176 17.6761 2.87496 18.1967 2.75546 18.6768C3.32164 18.629 3.94242 18.5887 4.51945 18.5915C5.08561 18.5942 6.0684 18.6265 6.87825 19.0452C8.05659 19.6543 9.39475 19.9993 10.8199 19.9993ZM2.18229 20.9241C3.56561 20.7899 5.21945 20.6478 5.87469 20.9865C7.35595 21.7522 9.03741 22.1847 10.8199 22.1847C16.7756 22.1847 21.6036 17.3566 21.6036 11.4009C21.6036 5.44523 16.7756 0.617188 10.8199 0.617188C4.86418 0.617188 0.0361358 5.44523 0.0361358 11.4009C0.0361358 12.8884 0.33729 14.3055 0.881952 15.5946C1.13485 16.1932 0.779039 17.6301 0.446711 18.8731C0.446603 18.8735 0.446496 18.8739 0.446388 18.8743C0.419571 18.9746 0.392908 19.0737 0.366732 19.1709C0.118811 20.0918 -0.0854746 20.8506 0.0361339 20.9865C0.157385 21.122 0.974184 21.0421 1.97398 20.9445C2.04241 20.9378 2.1117 20.931 2.18168 20.9242C2.18189 20.9242 2.18209 20.9242 2.18229 20.9241Z" fill="#6F32BB"></path>
        <path d="M9.47892 10.6382C9.71896 10.2931 9.82911 9.87407 9.78986 9.45547C9.75062 9.03686 9.56452 8.64565 9.26451 8.35109C8.91274 8.00171 8.48609 7.82452 7.99631 7.82452H4.84519C4.83127 7.82452 4.81793 7.83005 4.80809 7.83989C4.79825 7.84973 4.79272 7.86307 4.79272 7.87698V14.3225C4.79272 14.3364 4.79825 14.3497 4.80809 14.3596C4.81793 14.3694 4.83127 14.3749 4.84519 14.3749H7.54267C8.04507 14.3749 8.0577 14.3749 8.11125 14.3717C8.13018 14.3717 8.15478 14.3697 8.20942 14.3682C8.21697 14.3681 8.22441 14.3663 8.23119 14.363C8.72575 14.3135 9.16133 14.1048 9.52594 13.7421C9.85628 13.4167 10.072 12.9927 10.1407 12.5341C10.2093 12.0755 10.1272 11.6069 9.90666 11.199C9.79304 10.9917 9.64885 10.8026 9.47892 10.6382V10.6382ZM8.07315 9.19764C8.31761 9.23704 8.42427 9.43992 8.42144 9.62604C8.41839 9.81629 8.30193 10.02 8.04855 10.0483C7.99587 10.0483 7.21419 10.0496 6.45949 10.0496H6.17934V9.19808H8.06749L8.07315 9.19764ZM6.17934 11.4291H7.99696C8.53637 11.4291 8.78191 11.8324 8.78191 12.2073C8.78485 12.4052 8.71374 12.5971 8.58252 12.7454C8.43755 12.9047 8.22857 12.989 7.97846 12.989H6.17934V11.4291Z" fill="#6F32BB"></path>
        <path d="M11.9429 7.81635H10.6683C10.6615 7.81632 10.6546 7.81765 10.6483 7.82026C10.6419 7.82287 10.6361 7.82672 10.6313 7.83157C10.6264 7.83642 10.6225 7.84219 10.6199 7.84855C10.6172 7.8549 10.6159 7.86171 10.6159 7.86859L10.6091 14.3104C10.6091 14.3173 10.6104 14.3241 10.613 14.3305C10.6156 14.3369 10.6195 14.3427 10.6244 14.3476C10.6293 14.3525 10.6351 14.3563 10.6414 14.359C10.6478 14.3616 10.6547 14.3629 10.6616 14.3628H11.9429C11.9498 14.3629 11.9566 14.3615 11.963 14.3589C11.9693 14.3563 11.9751 14.3524 11.98 14.3475C11.9849 14.3427 11.9888 14.3369 11.9914 14.3305C11.994 14.3241 11.9953 14.3173 11.9953 14.3104V7.86881C11.9953 7.85489 11.9898 7.84155 11.9799 7.83171C11.9701 7.82187 11.9568 7.81635 11.9429 7.81635V7.81635Z" fill="#6F32BB"></path>
        <path d="M15.1972 9.18599H17.4252C17.4391 9.18599 17.4524 9.18047 17.4623 9.17063C17.4721 9.16079 17.4776 9.14745 17.4776 9.13353V7.8588C17.4776 7.84489 17.4721 7.83155 17.4623 7.82171C17.4524 7.81187 17.4391 7.80634 17.4252 7.80634H15.1972C14.7673 7.80538 14.3434 7.90797 13.9615 8.10546C13.5795 8.30294 13.2508 8.58949 13.003 8.94089C12.5156 9.63202 12.5156 10.2668 12.5159 10.7768V10.7909C12.5159 10.8998 12.5135 11.0138 12.5113 11.1231C12.5032 11.5315 12.4947 11.9536 12.5962 12.3545C12.7426 12.933 13.078 13.446 13.5493 13.812C14.0205 14.1781 14.6005 14.3762 15.1972 14.375H17.4252C17.4391 14.375 17.4524 14.3695 17.4623 14.3597C17.4721 14.3498 17.4776 14.3365 17.4776 14.3226V13.0481C17.4777 13.0412 17.4763 13.0343 17.4737 13.0279C17.4711 13.0215 17.4672 13.0157 17.4623 13.0108C17.4575 13.0059 17.4517 13.002 17.4453 12.9994C17.4389 12.9967 17.4321 12.9954 17.4252 12.9954H15.1972C14.8838 12.9972 14.5802 12.8856 14.3426 12.6812C14.1049 12.4768 13.9492 12.1934 13.904 11.8833C13.8888 11.7918 13.8805 10.4383 13.904 10.2942C13.9499 9.98467 14.106 9.70212 14.3436 9.49851C14.5812 9.2949 14.8843 9.18392 15.1972 9.18599V9.18599Z" fill="#6F32BB"></path>
    </g>
    <defs>
        <clipPath id="clip0_1704_30">
            <rect width="24" height="24" fill="white"></rect>
        </clipPath>
    </defs>
</svg>