<svg width="24" height="24" viewBox="0 0 24 24" fill="none"
    xmlns="http://www.w3.org/2000/svg" class="size-6 min-h-6 min-w-6 text-white" plerdy-tracking-id="30155801101">
    <path fill-rule="evenodd" clip-rule="evenodd" d="M12 22C10.6167 22 9.31667 21.7373 8.1 21.212C6.88333 20.6873 5.825 19.975 4.925 19.075C4.025 18.175 3.31267 17.1167 2.788 15.9C2.26267 14.6833 2 13.3833 2 12C2 10.6167 2.26267 9.31667 2.788 8.1C3.31267 6.88333 4.025 5.825 4.925 4.925C5.825 4.025 6.88333 3.31233 8.1 2.787C9.31667 2.26233 10.6167 2 12 2C13.3833 2 14.6833 2.26233 15.9 2.787C17.1167 3.31233 18.175 4.025 19.075 4.925C19.975 5.825 20.6873 6.88333 21.212 8.1C21.7373 9.31667 22 10.6167 22 12C22 13.3833 21.7373 14.6833 21.212 15.9C20.6873 17.1167 19.975 18.175 19.075 19.075C18.175 19.975 17.1167 20.6873 15.9 21.212C14.6833 21.7373 13.3833 22 12 22ZM8.425 11.625L10.6 13.8L15.55 8.85C15.7333 8.66667 15.9667 8.575 16.25 8.575C16.5333 8.575 16.7667 8.66667 16.95 8.85C17.1333 9.03333 17.2293 9.26233 17.238 9.537C17.246 9.81233 17.1583 10.0417 16.975 10.225L11.3 15.9C11.1167 16.0833 10.8833 16.175 10.6 16.175C10.3167 16.175 10.0833 16.0833 9.9 15.9L7.05 13.05C6.86667 12.8667 6.775 12.6333 6.775 12.35C6.775 12.0667 6.86667 11.8333 7.05 11.65C7.23333 11.4667 7.46267 11.371 7.738 11.363C8.01267 11.3543 8.24167 11.4417 8.425 11.625Z" fill=""></path>
</svg>