<svg xmlns="http://www.w3.org/2000/svg" width="" height="" viewBox="0 0 24 24" fill="none" class="h-5 w-5 text-neutral-40">
    <path d="M12.0079 2C10.2944 1.99964 8.60947 2.43918 7.11472 3.27651C5.61998 4.11383 4.36549 5.32086 3.47153 6.78188C2.57757 8.2429 2.0741 9.90894 2.0094 11.6203C1.94469 13.3316 2.32091 15.0309 3.102 16.5551L2.09702 19.5573C1.98681 19.8841 1.97013 20.2352 2.04885 20.5709C2.12758 20.9067 2.29858 21.2139 2.54259 21.4577C2.78659 21.7016 3.0939 21.8725 3.42987 21.9512C3.76585 22.0299 4.11713 22.0132 4.44414 21.903L7.44797 20.9023C8.79477 21.5895 10.2799 21.9626 11.7918 21.9935C13.3036 22.0244 14.8028 21.7124 16.1766 21.0809C17.5504 20.4494 18.7631 19.5148 19.7235 18.3474C20.6838 17.1801 21.3669 15.8103 21.7213 14.3411C22.0758 12.8719 22.0923 11.3415 21.7697 9.86503C21.4472 8.38852 20.7938 7.00432 19.8589 5.81649C18.924 4.62866 17.7318 3.66812 16.372 3.00708C15.0121 2.34605 13.5201 2.00173 12.0079 2ZM12.0079 19.7739C10.6401 19.7744 9.29637 19.4145 8.11209 18.7306C7.94323 18.6327 7.75155 18.581 7.55634 18.5806C7.4367 18.5809 7.31787 18.6002 7.20436 18.638L4.44506 19.5573L5.36483 16.7995C5.41463 16.6502 5.43213 16.4921 5.41616 16.3355C5.40019 16.179 5.35112 16.0276 5.2722 15.8914C4.41448 14.4094 4.07008 12.686 4.29242 10.9885C4.51477 9.29095 5.29143 7.7142 6.50192 6.50284C7.71241 5.29148 9.28906 4.51323 10.9873 4.28882C12.6855 4.06442 14.4103 4.40641 15.8942 5.26173C17.3781 6.11705 18.5381 7.4379 19.1943 9.01935C19.8504 10.6008 19.966 12.3545 19.5231 14.0083C19.0802 15.6621 18.1036 17.1236 16.7448 18.1661C15.386 19.2085 13.7209 19.7737 12.0079 19.7739Z" fill=""></path>
</svg>