<svg xmlns="http://www.w3.org/2000/svg" width="" height="" viewBox="0 0 20 24" fill="none" class="h-5 w-5 text-neutral-40">
    <path fill-rule="evenodd" clip-rule="evenodd" d="M9.73694 2.23682C10.6356 1.33821 11.8543 0.833374 13.1252 0.833374C14.396 0.833374 15.6148 1.33821 16.5134 2.23682C17.412 3.13543 17.9168 4.35421 17.9168 5.62504C17.9168 6.89587 17.412 8.11465 16.5134 9.01326C15.6148 9.91187 14.396 10.4167 13.1252 10.4167C11.8543 10.4167 10.6356 9.91187 9.73694 9.01326C8.83833 8.11465 8.3335 6.89587 8.3335 5.62504C8.3335 4.35421 8.83833 3.13543 9.73694 2.23682ZM13.1252 2.08337C12.1859 2.08337 11.285 2.45651 10.6208 3.1207C9.95663 3.7849 9.5835 4.68573 9.5835 5.62504C9.5835 6.56435 9.95663 7.46519 10.6208 8.12938C11.285 8.79357 12.1859 9.16671 13.1252 9.16671C14.0645 9.16671 14.9653 8.79357 15.6295 8.12938C16.2937 7.46519 16.6668 6.56435 16.6668 5.62504C16.6668 4.68573 16.2937 3.7849 15.6295 3.1207C14.9653 2.45651 14.0645 2.08337 13.1252 2.08337Z" fill=""></path>
    <path fill-rule="evenodd" clip-rule="evenodd" d="M13.1259 2.82349C13.356 2.82349 13.5425 3.01003 13.5425 3.24015V3.62758C13.7391 3.65215 13.9275 3.72477 14.0906 3.84002C14.2956 3.98489 14.4505 4.18996 14.5337 4.4268C14.61 4.6439 14.4959 4.88175 14.2788 4.95805C14.0617 5.03435 13.8238 4.92021 13.7475 4.70311C13.7216 4.62943 13.6735 4.56564 13.6097 4.52057C13.5459 4.4755 13.4697 4.45139 13.3916 4.45158L13.3906 4.45158H12.7753C12.703 4.45146 12.6325 4.4781 12.5787 4.52636C12.5248 4.57462 12.4907 4.6411 12.483 4.71299C12.4752 4.78487 12.4943 4.85709 12.5366 4.91573C12.5789 4.97437 12.6414 5.01529 12.7121 5.03061L12.713 5.03079L13.6496 5.2359C13.9414 5.29993 14.1995 5.46952 14.374 5.71205C14.5484 5.95458 14.6271 6.253 14.595 6.55003C14.5629 6.84705 14.4223 7.12176 14.2 7.32142C14.0157 7.48702 13.786 7.59131 13.5425 7.62219V8.00991C13.5425 8.24003 13.356 8.42658 13.1259 8.42658C12.8957 8.42658 12.7092 8.24003 12.7092 8.00991V7.62245C12.5124 7.59783 12.3239 7.52509 12.1608 7.40967C11.9558 7.26463 11.801 7.05936 11.7179 6.82236C11.6418 6.6052 11.7561 6.36744 11.9733 6.29131C12.1904 6.21518 12.4282 6.32951 12.5043 6.54667C12.5301 6.6204 12.5783 6.68425 12.6421 6.72938C12.7059 6.7745 12.7821 6.79865 12.8602 6.79848L12.8611 6.79848L13.1034 6.79848C13.1108 6.79809 13.1183 6.79789 13.1259 6.79789C13.1334 6.79789 13.1409 6.79809 13.1483 6.79848H13.3903C13.4836 6.79842 13.5737 6.76388 13.6431 6.7015C13.7126 6.63912 13.7565 6.55329 13.7665 6.46048C13.7766 6.36768 13.752 6.27444 13.6975 6.19866C13.643 6.12293 13.5625 6.06998 13.4714 6.04994L12.5356 5.84503C12.5354 5.84499 12.5358 5.84507 12.5356 5.84503C12.264 5.78605 12.0234 5.62863 11.8608 5.40326C11.6981 5.17774 11.6246 4.90001 11.6545 4.62355C11.6843 4.34709 11.8154 4.09144 12.0224 3.90583C12.2129 3.73513 12.4552 3.63478 12.7092 3.62012V3.24015C12.7092 3.01003 12.8957 2.82349 13.1259 2.82349ZM12.8611 7.63182V7.21515L12.862 7.63181C12.8618 7.63181 12.8613 7.63182 12.8611 7.63182Z" fill=""></path>
    <path fill-rule="evenodd" clip-rule="evenodd" d="M3.63082 13.1611C3.15116 13.0763 2.64319 13.2033 2.25334 13.5384L1.54013 14.1515C1.19111 14.4515 1.15139 14.9776 1.4514 15.3266C1.75141 15.6757 2.27755 15.7154 2.62657 15.4154L3.33978 14.8023L6.81385 17.4185L6.45429 17.7781C6.12885 18.1035 6.12885 18.5971 6.45429 18.9226C6.77972 19.248 7.30736 19.248 7.6328 18.9226L7.71274 18.8426H11.1284C11.4407 18.8426 11.7467 18.7549 12.0116 18.5894L17.9641 14.9097C18.4515 14.6051 18.7476 14.071 18.7476 13.4963V12.7082C18.7476 11.5189 17.5377 10.7123 16.4399 11.1697L13.4316 12.4731L13.1764 11.9628C12.8941 11.3982 12.317 11.0415 11.6857 11.0415H9.89746L8.11726 10.1514C7.47068 9.82813 6.68704 9.9569 6.1798 10.4787C5.47913 11.1995 4.04662 12.6791 3.63082 13.1611ZM5.07841 14.042L7.83582 16.102C8.20193 16.3861 8.41457 16.7889 8.46745 17.21H10.8895C11.0456 17.21 11.1986 17.1661 11.331 17.0834L16.9006 13.6089C17.0128 13.5388 17.081 13.4159 17.081 13.2836C17.081 13.0099 16.8025 12.8242 16.5498 12.9295L13.3811 14.2997L11.2155 15.3825C10.8201 15.5802 10.3624 15.6127 9.94309 15.4729L7.77055 14.7488C7.33393 14.6032 7.09797 14.1313 7.24351 13.6947C7.38905 13.258 7.86098 13.0221 8.2976 13.1676L10.3064 13.8372C10.4112 13.8722 10.5257 13.864 10.6245 13.8146L11.6313 13.3112C11.7886 13.2326 11.8523 13.0414 11.7737 12.8841C11.7198 12.7763 11.6096 12.7082 11.489 12.7082H9.6027C9.53781 12.7082 9.47382 12.693 9.41582 12.6639L7.91918 11.9129C7.5943 11.7498 7.20141 11.8158 6.94866 12.0771C6.3127 12.7344 5.49626 13.5847 5.07841 14.042Z" fill=""></path>
</svg>