<svg xmlns="http://www.w3.org/2000/svg" width="" height="" viewBox="0 0 2 2" fill="none" class=" m-auto size-0.5 px-1">
    <path d="M2 1C1.9974 1.1875 1.95182 1.35547 1.86328 1.50391C1.77474 1.65495 1.65495 1.77474 1.50391 1.86328C1.35547 1.95182 1.1875 1.9974 1 2C0.8125 1.9974 0.644531 1.95182 0.496094 1.86328C0.345052 1.77474 0.22526 1.65495 0.136719 1.50391C0.0481771 1.35547 0.00260417 1.1875 0 1C0.00260417 0.8125 0.0481771 0.644531 0.136719 0.496094C0.22526 0.345052 0.345052 0.22526 0.496094 0.136719C0.644531 0.0481771 0.8125 0.00260417 1 0C1.1875 0.00260417 1.35547 0.0481771 1.50391 0.136719C1.65495 0.22526 1.77474 0.345052 1.86328 0.496094C1.95182 0.644531 1.9974 0.8125 2 1Z" fill=""></path>
</svg>