<svg xmlns="http://www.w3.org/2000/svg" width="24" height="24" viewBox="0 0 24 24" fill="none" class="size-6 text-neutral-40">
    <path fill-rule="evenodd" clip-rule="evenodd" d="M4.38016 12.5216C4.26517 12.3192 4.17258 12.1423 4.10169 12C4.17258 11.8577 4.26517 11.6808 4.38016 11.4784C4.70064 10.9143 5.18876 10.1637 5.85708 9.41679C7.19435 7.9222 9.19398 6.5 12 6.5C14.806 6.5 16.8057 7.9222 18.1429 9.41679C18.8112 10.1637 19.2994 10.9143 19.6198 11.4784C19.7348 11.6808 19.8274 11.8577 19.8983 12C19.8274 12.1423 19.7348 12.3192 19.6198 12.5216C19.2994 13.0857 18.8112 13.8363 18.1429 14.5832C16.8057 16.0778 14.806 17.5 12 17.5C9.19398 17.5 7.19435 16.0778 5.85708 14.5832C5.18876 13.8363 4.70064 13.0857 4.38016 12.5216ZM21.9266 11.6239C21.9268 11.6243 21.9269 11.6247 21 12C21.9269 12.3753 21.9268 12.3757 21.9266 12.3761L21.9262 12.3771L21.9252 12.3795L21.9225 12.3861L21.914 12.4064C21.9071 12.423 21.8974 12.4456 21.885 12.4738C21.8603 12.5303 21.8247 12.6096 21.7778 12.7082C21.6842 12.9054 21.5453 13.1813 21.3588 13.5096C20.9868 14.1643 20.419 15.0387 19.6334 15.9168C18.0628 17.6722 15.5624 19.5 12 19.5C8.43759 19.5 5.93722 17.6722 4.3666 15.9168C3.58097 15.0387 3.01317 14.1643 2.64122 13.5096C2.45467 13.1813 2.31581 12.9054 2.22218 12.7082C2.17533 12.6096 2.13968 12.5303 2.11496 12.4738C2.10259 12.4456 2.09294 12.423 2.08598 12.4064L2.07754 12.3861L2.07481 12.3795L2.07382 12.3771L2.07342 12.3761C2.07325 12.3757 2.07308 12.3753 3 12C2.07308 11.6247 2.07325 11.6243 2.07342 11.6239L2.07382 11.6229L2.07481 11.6205L2.07754 11.6139L2.08598 11.5936C2.09294 11.577 2.10259 11.5544 2.11496 11.5262C2.13968 11.4697 2.17533 11.3904 2.22218 11.2918C2.31581 11.0946 2.45467 10.8187 2.64122 10.4904C3.01317 9.83572 3.58097 8.96126 4.3666 8.08321C5.93722 6.3278 8.43759 4.5 12 4.5C15.5624 4.5 18.0628 6.3278 19.6334 8.08321C20.419 8.96126 20.9868 9.83572 21.3588 10.4904C21.5453 10.8187 21.6842 11.0946 21.7778 11.2918C21.8247 11.3904 21.8603 11.4697 21.885 11.5262C21.8974 11.5544 21.9071 11.577 21.914 11.5936L21.9225 11.6139L21.9252 11.6205L21.9262 11.6229L21.9266 11.6239ZM21 12L21.9269 11.6247C22.0244 11.8654 22.0244 12.1346 21.9269 12.3753L21 12ZM2.07308 11.6247L3 12L2.07308 12.3753C1.97564 12.1346 1.97564 11.8654 2.07308 11.6247ZM15 12C15 13.6569 13.6568 15 12 15C10.3431 15 8.99999 13.6569 8.99999 12C8.99999 10.3432 10.3431 9.00001 12 9.00001C13.6568 9.00001 15 10.3432 15 12Z" fill=""></path>
</svg>