<svg xmlns="http://www.w3.org/2000/svg" width="" height="" viewBox="0 0 24 24" fill="none" class="size-5 text-neutral-40">
    <path d="M2 7C2 6.30964 2.55964 5.75 3.25 5.75H20.75C21.4404 5.75 22 6.30964 22 7C22 7.69036 21.4404 8.25 20.75 8.25H3.25C2.55964 8.25 2 7.69036 2 7Z" fill=""></path>
    <path d="M5.75 12C5.75 11.3096 6.30964 10.75 7 10.75H17C17.6904 10.75 18.25 11.3096 18.25 12C18.25 12.6904 17.6904 13.25 17 13.25H7C6.30964 13.25 5.75 12.6904 5.75 12Z" fill=""></path>
    <path d="M10.75 15.75C10.0596 15.75 9.5 16.3096 9.5 17C9.5 17.6904 10.0596 18.25 10.75 18.25H13.25C13.9404 18.25 14.5 17.6904 14.5 17C14.5 16.3096 13.9404 15.75 13.25 15.75H10.75Z" fill=""></path>
</svg>