<svg width="" height="" viewBox="0 0 24 24" fill="none"
    xmlns="http://www.w3.org/2000/svg" class="ml-1 size-4 min-h-4 min-w-4 flex-none text-purple-40" data-state="closed">
    <path d="M12 2C12.7292 2 13.3802 2.18229 13.9531 2.54688C14.526 2.91146 14.9818 3.39323 15.3203 3.99219C15.9714 3.78385 16.6224 3.75781 17.2734 3.91406C17.9245 4.07031 18.5234 4.40885 19.0703 4.92969C19.5651 5.45052 19.8906 6.03646 20.0469 6.6875C20.2031 7.36458 20.1901 8.02865 20.0078 8.67969C20.6068 9.01823 21.0885 9.47396 21.4531 10.0469C21.8177 10.6198 22 11.2708 22 12C22 12.7292 21.8177 13.3802 21.4531 13.9531C21.0885 14.526 20.6068 14.9818 20.0078 15.3203C20.3984 16.6745 20.0859 17.9245 19.0703 19.0703C18.5234 19.5651 17.9245 19.8906 17.2734 20.0469C16.6224 20.2031 15.9714 20.1901 15.3203 20.0078C14.9818 20.6068 14.526 21.0885 13.9531 21.4531C13.3802 21.8177 12.7292 22 12 22C11.2708 22 10.6198 21.8177 10.0469 21.4531C9.47396 21.0885 9.01823 20.6068 8.67969 20.0078C8.02865 20.1901 7.36458 20.2031 6.6875 20.0469C6.03646 19.9167 5.45052 19.5911 4.92969 19.0703C3.91406 17.9245 3.60156 16.6745 3.99219 15.3203C3.39323 14.9818 2.91146 14.526 2.54688 13.9531C2.18229 13.3802 2 12.7292 2 12C2 11.2708 2.18229 10.6198 2.54688 10.0469C2.91146 9.47396 3.39323 9.01823 3.99219 8.67969C3.78385 8.02865 3.75781 7.36458 3.91406 6.6875C4.07031 6.03646 4.40885 5.45052 4.92969 4.92969C5.45052 4.40885 6.03646 4.07031 6.6875 3.91406C7.36458 3.78385 8.02865 3.8099 8.67969 3.99219C9.01823 3.39323 9.47396 2.91146 10.0469 2.54688C10.6198 2.18229 11.2708 2 12 2ZM15.75 10.75C16.1406 10.3333 16.1406 9.90365 15.75 9.46094C15.3333 9.09635 14.9036 9.09635 14.4609 9.46094L10.75 13.1719L9.1875 11.6484C8.77083 11.2839 8.34115 11.2839 7.89844 11.6484C7.53385 12.0911 7.53385 12.5208 7.89844 12.9375L10.0859 15.125C10.5286 15.5156 10.9583 15.5156 11.375 15.125L15.75 10.75Z" fill=""></path>
</svg>