<svg width="25" height="24" viewBox="0 0 25 24" fill="none"
    xmlns="http://www.w3.org/2000/svg" class="!size-6" plerdy-tracking-id="95405799001">
    <g clip-path="url(#clip0_8115_3799)">
        <path d="M24.4877 12.2222C24.4877 11.239 24.406 10.5214 24.2293 9.77734H12.7393V14.2153H19.4837C19.3478 15.3182 18.6135 16.9792 16.9817 18.0953L16.9588 18.2438L20.5918 20.994L20.8435 21.0186C23.1551 18.9324 24.4877 15.863 24.4877 12.2222Z" fill="#4285F4"></path>
        <path d="M12.7392 23.9178C16.0434 23.9178 18.8174 22.8548 20.8435 21.0211L16.9817 18.0978C15.9483 18.8021 14.5613 19.2937 12.7392 19.2937C9.50301 19.2937 6.75629 17.2076 5.77716 14.3242L5.63364 14.3361L1.85604 17.193L1.80664 17.3271C3.81908 21.2337 7.9528 23.9178 12.7392 23.9178Z" fill="#34A853"></path>
        <path d="M5.77684 14.3228C5.51849 13.5787 5.36897 12.7814 5.36897 11.9576C5.36897 11.1338 5.51849 10.3365 5.76325 9.59244L5.75641 9.43397L1.93147 6.53125L1.80633 6.58942C0.976902 8.21052 0.500977 10.0309 0.500977 11.9576C0.500977 13.8843 0.976902 15.7047 1.80633 17.3258L5.77684 14.3228Z" fill="#FBBC05"></path>
        <path d="M12.739 4.62403C15.037 4.62403 16.5871 5.59402 17.471 6.40461L20.9248 3.10928C18.8036 1.1826 16.0432 0 12.739 0C7.95256 0 3.81884 2.68406 1.8064 6.59056L5.76332 9.59359C6.75604 6.7102 9.50276 4.62403 12.739 4.62403Z" fill="#EB4335"></path>
    </g>
    <defs>
        <clipPath id="clip0_8115_3799">
            <rect width="24" height="24" fill="white" transform="translate(0.5)"></rect>
        </clipPath>
    </defs>
</svg>