<svg width="24" height="24" viewBox="0 0 24 24" fill="none"
    xmlns="http://www.w3.org/2000/svg">
    <path d="M8.3 3.7C7.6 3.3 6.9 3 6.1 3C5.3 3 4.6 3.2 3.9 3.7C3.3 4.1 2.8 4.8 2.6 5.5C2.3 6.3 2.3 7.1 2.5 7.8C2.7 8.6 3.2 9.2 3.8 9.7C2.6 10.2 1.7 11 1.1 12.1C1.1 12.1 1 12.2 1 12.3V12.6C1 12.7 1.1 12.8 1.1 12.8C1.1 12.8618 1.1382 12.8854 1.19098 12.918C1.22361 12.9382 1.2618 12.9618 1.3 13H1.5L6.6 13.1C6.6 12.3 6.7 11.5 7 10.7C7.3 9.6 8 8.6 9 7.9C9.15279 7.74721 9.36393 7.65279 9.54427 7.57214C9.6 7.54721 9.65279 7.52361 9.7 7.5C9.8 6.9 9.8 6.3 9.6 5.7C9.4 4.9 8.9 4.2 8.3 3.7ZM23.4 12.3001C22.8 11.2001 21.9 10.4001 20.8 9.9001C21.4 9.4001 21.9 8.8001 22.1 8.0001C22.3 7.2001 22.3 6.4001 22.1 5.7001C21.9 4.9001 21.4 4.3001 20.8 3.8001C20.2 3.3001 19.4 3.1001 18.6 3.1001C17.8 3.1001 17.1 3.3001 16.4 3.8001C15.8 4.3001 15.3 4.9001 15 5.6001C14.8 6.2001 14.7 6.8001 14.8 7.4001C14.9 7.4501 15.025 7.5251 15.15 7.6001C15.275 7.6751 15.4 7.7501 15.5 7.8001C16.5 8.5001 17.2 9.5001 17.6 10.6001C17.9 11.4001 18 12.3001 17.9 13.1001L22.9 13.2001C23 13.2001 23.1 13.2001 23.1 13.1001C23.1618 13.1001 23.1854 13.0619 23.218 13.0091C23.2382 12.9765 23.2618 12.9383 23.3 12.9001C23.3575 12.8426 23.3819 12.8182 23.3923 12.7888C23.4 12.767 23.4 12.7426 23.4 12.7001V12.4001C23.5 12.5001 23.5 12.4001 23.4 12.3001ZM16.7 14.1C16.4 15.1 15.9 15.9 15.1 16.5C16.4 17.1 17.6 18.2 18.1 19.5C18.1 19.55 18.125 19.6 18.15 19.65C18.175 19.7 18.2 19.75 18.2 19.8V20.1C18.2 20.2 18.2 20.3 18.1 20.4C18.1 20.4618 18.0618 20.4854 18.009 20.518C17.9764 20.5382 17.9382 20.5618 17.9 20.6C17.8 20.7 17.7 20.7 17.6 20.7H6.6C6.55 20.7 6.5 20.675 6.45 20.65C6.4 20.625 6.35 20.6 6.3 20.6C6.2382 20.6 6.21459 20.5618 6.18197 20.509C6.1618 20.4764 6.1382 20.4382 6.1 20.4C6.1 20.35 6.075 20.3 6.05 20.25C6.025 20.2 6 20.15 6 20.1V19.8C6 19.7 6 19.6 6.1 19.5C6.9 18.2 8 17.2 9.4 16.6C8.7 16 8.1 15.1 7.8 14.2C7.5 13.2 7.5 12.2 7.8 11.3C8.2 10.3 8.8 9.5 9.6 8.9C10.4 8.3 11.3 8 12.3 8C13.3 8 14.2 8.3 15 8.9C15.8 9.5 16.4 10.3 16.7 11.2C17 12.1 17 13.2 16.7 14.1Z" fill-rule="evenodd" clip-rule="evenodd" fill=""></path>
</svg>