<svg xmlns="http://www.w3.org/2000/svg" width="" height="" viewBox="0 0 24 24" fill="none" class="h-5 w-5 text-neutral-40">
    <path fill-rule="evenodd" clip-rule="evenodd" d="M12.089 2.00008C11.706 1.99533 11.354 2.20978 11.1825 2.55227L8.07749 8.75327L8.07613 8.756C8.0099 8.88929 7.9078 9.00145 7.78131 9.07989C7.65482 9.15833 7.50896 9.19992 7.36013 9.2H4.87666C4.13405 9.2 3.42186 9.495 2.89676 10.0201C2.37166 10.5452 2.07666 11.2574 2.07666 12V19.2C2.07666 19.9426 2.37166 20.6548 2.89676 21.1799C3.42186 21.705 4.13405 22 4.87666 22H17.0267C17.6325 22 18.222 21.8035 18.7067 21.44C19.1913 21.0765 19.5451 20.5652 19.7148 19.9836L21.8117 12.784C21.9334 12.3667 21.9563 11.9268 21.8785 11.4991C21.8007 11.0714 21.6245 10.6678 21.3637 10.32C21.1028 9.97225 20.7647 9.69 20.3759 9.4956C19.9871 9.30121 19.5583 9.2 19.1237 9.2H15.1484L15.7475 6.73169L15.7481 6.72948C15.8854 6.1718 15.8951 5.59029 15.7765 5.02831C15.6577 4.46559 15.4132 3.93699 15.0614 3.482C14.7096 3.02702 14.2596 2.65741 13.7449 2.4008C13.2302 2.14418 12.6641 2.0072 12.089 2.00008ZM9.86719 9.646L12.6431 4.10218C12.7145 4.12722 12.7845 4.15675 12.8525 4.19068C13.0975 4.31283 13.3118 4.48878 13.4792 4.70536C13.6467 4.92195 13.763 5.17358 13.8196 5.44145C13.8761 5.70932 13.8714 5.98651 13.8058 6.25231L13.8049 6.25613L12.9049 9.96413C12.8325 10.2622 12.901 10.577 13.0906 10.8181C13.2802 11.0592 13.5699 11.2 13.8767 11.2H19.1237C19.2479 11.2 19.3703 11.2289 19.4814 11.2845C19.5925 11.34 19.6891 11.4206 19.7637 11.52C19.8382 11.6194 19.8885 11.7347 19.9108 11.8569C19.933 11.9791 19.9263 12.1051 19.8916 12.2244L17.7947 19.424C17.7462 19.5902 17.6451 19.7361 17.5067 19.84C17.3682 19.9439 17.1998 20 17.0267 20H8.57666V10.9217C8.66506 10.8791 8.75141 10.8316 8.83533 10.7796C9.27757 10.5054 9.63463 10.1133 9.86646 9.64747L9.86719 9.646ZM6.57666 11.2H4.87666C4.66449 11.2 4.461 11.2843 4.31097 11.4343C4.16095 11.5843 4.07666 11.7878 4.07666 12V19.2C4.07666 19.4122 4.16095 19.6157 4.31097 19.7657C4.461 19.9157 4.66449 20 4.87666 20H6.57666V11.2Z" fill=""></path>
</svg>