<svg xmlns="http://www.w3.org/2000/svg" width="24" height="24" viewBox="0 0 25 25" fill="none">
    <path d="M13.2994 17.9486C13.9819 17.9486 14.5364 18.5031 14.5364 19.1856V21.8941H10.1003V19.1856C10.1003 18.5031 10.6548 17.9486 11.3373 17.9486H13.2994ZM18.226 21.8941C18.9511 21.8941 19.6335 21.6168 20.1454 21.105C20.6572 20.5931 20.9345 19.9107 20.9345 19.1856V12.9367C19.1217 13.7685 17.0316 13.7258 15.2828 12.8088C14.3658 13.2779 13.3634 13.5339 12.3397 13.5125C11.316 13.5339 10.2923 13.2779 9.39654 12.8088C8.47948 13.2993 7.4771 13.5552 6.43208 13.5339C5.49368 13.5339 4.57662 13.3419 3.72354 12.9367V19.1856C3.72354 19.9107 4.00079 20.5931 4.51264 21.105C5.02449 21.6168 5.70695 21.8941 6.43208 21.8941H8.62877V19.1856C8.62877 17.6927 9.84441 16.477 11.3373 16.477H13.2994C14.7923 16.477 16.0079 17.6927 16.0079 19.1856V21.8941H18.226ZM4.25671 11.5505C4.91785 11.8917 5.6643 12.041 6.41075 12.041C7.24251 12.0623 8.05294 11.849 8.77806 11.4438C9.14062 11.2305 9.58849 11.2305 9.97237 11.4438C11.2947 12.2329 13.3847 12.2329 14.6857 11.4438C15.0482 11.2305 15.4961 11.2305 15.8587 11.4438C17.0956 12.1903 19.0364 12.2542 20.3587 11.5718C21.5103 10.9533 22.0435 9.58836 21.617 8.35139L20.3587 4.55516C19.9961 3.44616 18.9511 2.69971 17.7994 2.69971H6.83729C5.6643 2.69971 4.6406 3.44616 4.27804 4.55516L2.99841 8.33006C2.5932 9.56703 3.12638 10.932 4.25671 11.5505Z" fill=""></path>
</svg>