<svg xmlns="http://www.w3.org/2000/svg" width="" height="" viewBox="0 0 24 24" fill="none" class="size-6 text-orange-30">
    <path fill-rule="evenodd" clip-rule="evenodd" d="M3.3127 4.30803C3.83332 3.79014 4.53848 3.5 5.27283 3.5H18.727C19.4614 3.5 20.1665 3.79014 20.6871 4.30803C21.2079 4.82607 21.5013 5.52964 21.5013 6.2642V17.7358C21.5013 18.4704 21.2079 19.1739 20.6871 19.692C20.1665 20.2099 19.4614 20.5 18.727 20.5H5.27283C4.53848 20.5 3.83332 20.2099 3.3127 19.692C2.79192 19.1739 2.49854 18.4704 2.49854 17.7358V6.2642C2.49854 5.52964 2.79192 4.82607 3.3127 4.30803ZM7.19486 7.32387C6.72416 7.32387 6.34259 7.70544 6.34259 8.17613V12C6.34259 12.4707 6.72416 12.8523 7.19486 12.8523H11.0389C11.5096 12.8523 11.8912 12.4707 11.8912 12V8.17613C11.8912 7.70544 11.5096 7.32387 11.0389 7.32387H7.19486ZM14.0307 8.17613C14.0307 7.70544 14.4123 7.32387 14.883 7.32387H16.805C17.2757 7.32387 17.6573 7.70544 17.6573 8.17613C17.6573 8.64683 17.2757 9.0284 16.805 9.0284H14.883C14.4123 9.0284 14.0307 8.64683 14.0307 8.17613ZM14.883 11.1477C14.4123 11.1477 14.0307 11.5293 14.0307 12C14.0307 12.4707 14.4123 12.8523 14.883 12.8523H16.805C17.2757 12.8523 17.6573 12.4707 17.6573 12C17.6573 11.5293 17.2757 11.1477 16.805 11.1477H14.883ZM6.34259 15.8239C6.34259 15.3532 6.72416 14.9716 7.19486 14.9716H16.805C17.2757 14.9716 17.6573 15.3532 17.6573 15.8239C17.6573 16.2946 17.2757 16.6761 16.805 16.6761H7.19486C6.72416 16.6761 6.34259 16.2946 6.34259 15.8239Z" fill=""></path>
</svg>