<svg width="" height="" viewBox="0 0 21 20" fill="none"
    xmlns="http://www.w3.org/2000/svg" class="h-5 w-5 text-neutral-40">
    <path fill-rule="evenodd" clip-rule="evenodd" d="M12.2708 5.0643C12.2708 4.77805 12.6078 4.62494 12.8234 4.81325L16.8432 8.32445C16.9952 8.45727 16.9952 8.69372 16.8432 8.82654L12.8234 12.3377C12.6078 12.5261 12.2708 12.3729 12.2708 12.0867V9.96952C12.2708 9.78543 12.1215 9.63619 11.9375 9.63619H11.4375C9.11271 9.63619 7.25564 10.0196 6.11754 11.002L6.11635 11.003C5.00724 11.964 4.83028 13.4749 5.18654 15.2133C4.92516 14.9191 4.68215 14.5753 4.45907 14.1778L4.45485 14.1703C4.05771 13.4796 3.85211 12.746 3.83341 11.9574C3.85348 10.6037 4.19822 9.69255 4.75181 9.09928C5.36078 8.44665 6.20928 7.96968 7.35071 7.7015C8.5462 7.42062 9.90651 7.27618 11.4375 7.27618H11.9375C12.1215 7.27618 12.2708 7.12694 12.2708 6.94285V5.0643ZM12.3574 2.51752C12.051 2.46953 11.7563 2.52261 11.4932 2.64626C10.9209 2.91519 10.6408 3.4337 10.6057 4.00561L10.6041 4.03112V5.62332C9.2937 5.66747 8.08106 5.81786 6.96951 6.07901C5.57187 6.40738 4.40865 7.02407 3.53325 7.96223C2.60442 8.95764 2.18792 10.3289 2.16669 11.95L2.1665 11.9641L2.1668 11.9783C2.18924 13.0522 2.47115 14.0626 3.00777 14.9973C3.52558 15.9188 4.16796 16.6724 4.94527 17.231L4.9748 17.2522L5.00607 17.2708C5.42389 17.5189 5.99136 17.6289 6.51482 17.2736L6.5227 17.2683L6.53047 17.2627C6.73864 17.1144 6.92601 16.9039 7.02818 16.6216C7.12974 16.3409 7.1209 16.0618 7.0612 15.8187L7.05589 15.7971L7.04945 15.7758C6.41821 13.692 6.69809 12.7046 7.20732 12.263C7.78025 11.7689 8.85754 11.4082 10.6041 11.3224V13.1199L10.6057 13.1454C10.6408 13.7173 10.9209 14.2358 11.4932 14.5047C11.7563 14.6284 12.051 14.6815 12.3574 14.6335C12.6563 14.5867 12.9123 14.4524 13.1231 14.2873L13.1407 14.2735L18.3378 9.73397L18.3601 9.71125C18.6661 9.39972 18.8333 9.00244 18.8333 8.56058C18.8333 8.11635 18.6626 7.70672 18.3199 7.40145L18.3138 7.39604L13.1407 2.87747L13.1231 2.8637C12.9123 2.69861 12.6563 2.56434 12.3574 2.51752Z" fill=""></path>
</svg>