<svg xmlns="http://www.w3.org/2000/svg" width="24" height="24" viewBox="0 0 24 24" fill="none">
    <g clip-path="url(#clip0_1028_36)">
        <path d="M20.4 11.8C20.4 11.6 20.3 11.4 20.2 11.3V9C20.2 7.9 19.3 7 18.2 7V5C18.2 3.9 17.3 3 16.2 3H6.19995C4.49995 3 3.19995 4.3 3.19995 6V18C3.19995 19.7 4.49995 21 6.19995 21H18.2C19.3 21 20.2 20.1 20.2 19V16.4C20.3 16.2 20.4 16.1 20.4 15.9V11.8ZM15.4 12.8H18.4V14.8H15.4C14.8 14.8 14.4 14.4 14.4 13.8C14.4 13.2 14.8 12.8 15.4 12.8ZM5.19995 6C5.19995 5.4 5.59995 5 6.19995 5H16.2V7H6.19995C5.69995 7 5.19995 6.6 5.19995 6Z" fill="#6F32BB"></path>
    </g>
    <defs>
        <clipPath id="clip0_1028_36">
            <rect width="24" height="24" fill="white"></rect>
        </clipPath>
    </defs>
</svg>